<svg width="25" height="24" viewBox="0 0 25 24" fill="none" xmlns="http://www.w3.org/2000/svg">
<path d="M9.4999 3.5V20.5M2.9639 9.344C2.7159 9.344 2.4889 9.142 2.4999 8.879C2.5669 7.337 2.7549 6.333 3.2799 5.539C3.57936 5.08653 3.9549 4.68933 4.3899 4.365C5.5549 3.5 7.1999 3.5 10.4919 3.5H14.5059C17.7979 3.5 19.4429 3.5 20.6099 4.365C21.0409 4.685 21.4169 5.082 21.7189 5.539C22.2439 6.333 22.4319 7.337 22.4989 8.879C22.5099 9.142 22.2829 9.344 22.0339 9.344C20.6479 9.344 19.5239 10.533 19.5239 12C19.5239 13.467 20.6479 14.656 22.0339 14.656C22.2829 14.656 22.5099 14.858 22.4989 15.122C22.4319 16.663 22.2439 17.667 21.7189 18.462C21.4193 18.9141 21.0438 19.311 20.6089 19.635C19.4429 20.5 17.7979 20.5 14.5059 20.5H10.4929C7.2009 20.5 5.5559 20.5 4.3889 19.635C3.95426 19.3106 3.57906 18.9134 3.2799 18.461C2.7549 17.667 2.5669 16.663 2.4999 15.121C2.4889 14.858 2.7159 14.656 2.9639 14.656C4.3499 14.656 5.4739 13.467 5.4739 12C5.4739 10.533 4.3499 9.344 2.9639 9.344Z" stroke="white" stroke-width="1.5" stroke-linecap="round" stroke-linejoin="round"/>
</svg>
