<svg width="20" height="16" viewBox="0 0 20 16" fill="none" xmlns="http://www.w3.org/2000/svg">
<path d="M18 0.00012207H2C0.897 0.00012207 0 0.897122 0 2.00012V14.0001C0 15.1031 0.897 16.0001 2 16.0001H18C19.103 16.0001 20 15.1031 20 14.0001V2.00012C20 0.897122 19.103 0.00012207 18 0.00012207ZM18 2.00012V2.51112L10 8.73412L2 2.51212V2.00012H18ZM2 14.0001V5.04412L9.386 10.7891C9.56111 10.9267 9.77733 11.0014 10 11.0014C10.2227 11.0014 10.4389 10.9267 10.614 10.7891L18 5.04412L18.002 14.0001H2Z" fill="white"/>
</svg>
