<svg width="37" height="37" viewBox="0 0 37 37" fill="none" xmlns="http://www.w3.org/2000/svg">
<path d="M23.697 5.49739C24.3502 5.01607 25.2821 5.28329 25.581 6.0376L27.3054 10.3899C27.4756 10.8194 27.8709 11.1182 28.3305 11.1649L33.4843 11.6886C34.38 11.7796 34.8816 12.7663 34.4273 13.5435L32.5017 16.8385C32.216 17.3272 32.2986 17.9475 32.7022 18.3445L35.7799 21.3724C36.479 22.0601 36.1381 23.249 35.1808 23.4618L30.9662 24.3986C30.4136 24.5214 30.0148 25.0037 29.9981 25.5696L29.8851 29.3843C29.8584 30.2841 28.9102 30.8551 28.1024 30.4576L23.4542 28.1706C23.0397 27.9666 22.5461 28.0106 22.1742 28.2847L18.4054 31.0618C17.7522 31.5431 16.8203 31.2759 16.5215 30.5216L14.797 26.1693C14.6268 25.7398 14.2316 25.441 13.772 25.3943L8.6181 24.8706C7.72246 24.7796 7.22086 23.7929 7.67511 23.0157L9.60077 19.7207C9.88642 19.232 9.80384 18.6117 9.40028 18.2147L6.32252 15.1868C5.62342 14.4991 5.96433 13.3102 6.92166 13.0974L11.1363 12.1606C11.6889 12.0378 12.0876 11.5555 12.1044 10.9896L12.2174 7.17492C12.244 6.27507 13.1923 5.70412 14 6.10157L18.6483 8.38862C19.0628 8.59256 19.5564 8.54856 19.9283 8.27452L23.697 5.49739Z" fill="#D9D9D9"/>
<path d="M14.2854 22.4286C14.2158 22.4086 14.1587 22.3671 14.1139 22.3041L14.1292 21.9883C14.1474 21.9684 14.1657 21.9485 14.1839 21.9286C14.2022 21.9088 14.2221 21.8831 14.2437 21.8516L14.2016 21.67L14.2618 21.0658C14.2486 21.0244 14.2371 20.9771 14.2272 20.9241C14.2305 20.9125 14.2562 20.8884 14.3043 20.852C14.3558 20.804 14.3831 20.7742 14.3865 20.7626L14.2922 20.566C14.2757 20.4483 14.3023 20.3555 14.372 20.2876C14.3555 20.2577 14.3348 20.2204 14.3099 20.1756C14.2967 20.1342 14.2794 20.0853 14.2579 20.0289L14.3551 19.7554C14.3303 19.7106 14.3171 19.6692 14.3154 19.6311C14.3669 19.583 14.4175 19.5159 14.4673 19.4298C14.4624 19.4032 14.4475 19.3676 14.4227 19.3228C14.4128 19.2697 14.4045 19.2109 14.398 19.1462L14.4505 18.7658L14.3836 18.5395L14.4212 18.2113L14.5061 17.9154C14.5823 17.9122 14.6254 17.8931 14.6354 17.8583C14.6454 17.8235 14.6107 17.7257 14.5313 17.5648L14.5687 17.3684L14.5887 17.2988C14.5507 17.2125 14.5301 17.0874 14.5269 16.9232C14.5601 16.8951 14.575 16.8429 14.5718 16.7666L14.6044 16.4558C14.5796 16.411 14.5664 16.3696 14.5648 16.3314L14.56 16.0853C14.575 16.077 14.5941 16.0322 14.6173 15.951L14.705 15.317C14.6768 15.2838 14.6587 15.2158 14.6505 15.113L14.7975 14.7974C14.8374 14.6582 14.8425 14.5529 14.8127 14.4816L14.681 14.3497C14.7044 14.1806 14.7253 14.0422 14.7436 13.9344C14.7735 13.83 14.801 13.7563 14.8259 13.7132C14.8292 13.7016 14.8267 13.6883 14.8185 13.6734C14.8218 13.6618 14.821 13.6427 14.816 13.6162C14.7912 13.5714 14.7821 13.5374 14.7888 13.5142C14.7987 13.4794 14.8411 13.4413 14.9157 13.4C14.8478 13.3303 14.8164 13.2648 14.8214 13.2034C14.838 13.1454 14.8547 13.0874 14.8713 13.0294L14.8768 12.4848C14.8685 12.4699 14.8859 12.4309 14.9291 12.368C14.9358 12.3448 14.9308 12.3183 14.9143 12.2884L14.9816 12.1194C14.9882 12.0962 14.9576 12.0497 14.8897 11.98C14.8963 11.9568 14.8972 11.932 14.8923 11.9054C14.9022 11.8706 14.9081 11.8284 14.9098 11.7786L14.8403 11.6269C14.8934 11.5291 14.9648 11.4554 15.0544 11.4058L15.1588 11.4357C15.1936 11.4457 15.2259 11.4424 15.2558 11.4258C15.2956 11.3745 15.3155 11.3488 15.3155 11.3488C15.4082 11.4633 15.4488 11.5189 15.4372 11.5155C15.472 11.5255 15.4811 11.5156 15.4646 11.4857C15.5673 11.5654 15.6112 11.6094 15.5963 11.6176L15.7778 11.5755C15.8607 11.637 15.9551 11.7017 16.0611 11.7698C16.0843 11.7764 16.1283 11.7325 16.193 11.6381L16.3199 11.6556C16.3314 11.7468 16.3429 11.7941 16.3545 11.7974C16.3844 11.7809 16.42 11.766 16.4615 11.7527C16.5146 11.7428 16.5734 11.7346 16.6381 11.728C16.6613 11.7347 16.6961 11.7447 16.7425 11.758C16.7922 11.7597 16.8478 11.7631 16.9091 11.7681C16.9406 11.7897 16.9447 11.8411 16.9214 11.9223L16.8441 12.1261C16.8092 12.204 16.7851 12.2661 16.7718 12.3125C16.7585 12.359 16.7427 12.3921 16.7245 12.412L16.7269 12.4692L16.7069 12.5388L16.6372 12.6506C16.6339 12.6622 16.6579 12.6879 16.7092 12.7278L16.7041 12.877C16.7256 12.9334 16.7297 12.9847 16.7164 13.0312L16.6217 13.23C16.6051 13.288 16.6357 13.3784 16.7135 13.5011L16.6011 13.9586L16.621 14.0208C16.6259 14.0473 16.6292 14.0796 16.6308 14.1178C16.6325 14.1559 16.6324 14.1998 16.6307 14.2496L16.6257 14.267C16.6058 14.3366 16.5361 14.4045 16.4166 14.4707C16.4497 14.5304 16.4737 14.6 16.4886 14.6796C16.5034 14.7592 16.5207 14.8521 16.5405 14.9582L16.5031 15.0228C16.4816 15.0543 16.4658 15.0874 16.4558 15.1222L16.2966 15.1519C16.2367 15.3607 16.1834 15.6782 16.1366 16.1042C16.1349 16.1539 16.1572 16.1854 16.2036 16.1987L16.3329 16.2734L16.4423 16.286C16.3675 16.4152 16.3186 16.4765 16.2954 16.4699C16.3003 16.4964 16.3036 16.5287 16.3052 16.5669C16.3102 16.5934 16.3135 16.6257 16.3151 16.6638C16.3217 16.7285 16.3166 16.7898 16.3 16.8478C16.2983 16.8976 16.2966 16.9473 16.2949 16.997C16.2849 17.0318 16.2061 17.0658 16.0585 17.0988C16.09 17.1204 16.1389 17.1909 16.2051 17.3103C16.2382 17.37 16.2447 17.4347 16.2248 17.5043L16.1948 17.6087L16.0606 17.5514C16.0258 17.5414 15.9694 17.5629 15.8914 17.6158L15.9933 17.7204L15.9211 17.775C15.9377 17.8049 15.9484 17.8331 15.9534 17.8596C16.0479 17.8365 16.13 17.8349 16.1996 17.8549C16.2228 17.8615 16.2335 17.8897 16.2318 17.9394C16.2301 17.9892 16.2466 18.019 16.2815 18.029L16.2738 18.2528C16.3102 18.3009 16.3201 18.354 16.3035 18.412C16.2968 18.4352 16.2719 18.4783 16.2287 18.5412L16.2312 18.5984C16.2395 18.6133 16.2552 18.6241 16.2784 18.6308C16.3828 18.6607 16.455 18.6061 16.4949 18.4669C16.5049 18.4321 16.5024 18.3749 16.4876 18.2953L16.4081 18.1783L16.4331 18.0913L16.4903 18.0889C16.4903 18.0889 16.4887 18.0508 16.4854 17.9745L16.381 17.9446C16.381 17.9446 16.4051 17.9263 16.4532 17.8899C16.4482 17.8634 16.4574 17.8095 16.4807 17.7283L16.5928 17.5345L16.6974 17.3008C16.6958 17.2627 16.7133 17.1798 16.7499 17.0522C16.7565 17.029 16.7839 16.9992 16.832 16.9627C16.8685 16.923 16.8885 16.8973 16.8918 16.8857L16.8347 16.7563C16.8646 16.7398 16.9036 16.7133 16.9517 16.6769C17.0147 16.6322 17.0835 16.5891 17.1582 16.5478L17.0861 16.4706C17.0961 16.4358 17.1078 16.3952 17.1211 16.3488C17.1344 16.3024 17.1419 16.2543 17.1436 16.2046L17.2183 16.0754C17.2399 16.0439 17.254 16.0165 17.2607 15.9933C17.2673 15.9701 17.2723 15.9527 17.2756 15.9411L17.3804 15.5757C17.4004 15.5061 17.4344 15.4531 17.4825 15.4166L17.5871 15.3148C17.612 15.2717 17.6195 15.2236 17.6096 15.1706C17.6593 15.1723 17.714 15.1566 17.7738 15.1235C17.8368 15.0788 17.8692 15.0316 17.8709 14.9818L17.8983 14.952C17.9082 14.9172 17.8967 14.8699 17.8636 14.8102C17.8155 14.7588 17.7999 14.7041 17.8165 14.6461L17.8265 14.6113L17.926 14.5268C17.9625 14.4871 17.9824 14.4614 17.9858 14.4498L17.9561 14.2906C17.9661 14.1679 17.9712 14.1066 17.9712 14.1066C17.9828 14.1099 18.0259 14.047 18.1007 13.9177L18.1132 13.8083C18.1216 13.7354 18.1199 13.6973 18.1083 13.6939C18.2178 13.6625 18.3273 13.5433 18.4369 13.3362C18.4784 13.3229 18.5041 13.2989 18.5141 13.2641C18.4826 13.2425 18.4478 13.1886 18.4098 13.1024C18.443 13.0742 18.5144 12.9566 18.624 12.7495L18.6267 12.5431C18.7098 12.3409 18.8093 12.2565 18.9253 12.2897C18.9601 12.2997 18.9883 12.3329 19.0098 12.3893C19.0163 12.4539 19.0428 12.4929 19.0892 12.5062C19.1356 12.5195 19.1846 12.5022 19.236 12.4542C19.2874 12.4061 19.3306 12.3871 19.3654 12.3971C19.3902 12.4419 19.4299 12.4784 19.4846 12.5066L19.5816 12.4968C19.6197 12.4951 19.6504 12.4977 19.6736 12.5043C19.7432 12.5243 19.7822 12.5417 19.7904 12.5566C19.8384 12.6959 19.8972 12.7756 19.9668 12.7955C20.0016 12.8055 20.0521 12.7823 20.1185 12.726C20.1932 12.6847 20.2363 12.6656 20.2479 12.669L20.2901 12.7187L20.5513 12.6618C20.5595 12.6767 20.5985 12.6942 20.6681 12.7141C20.6797 12.7175 20.6863 12.7382 20.6879 12.7763L20.5908 12.918C20.5609 12.9345 20.5186 12.9726 20.4639 13.0322C20.4638 13.1201 20.4289 13.2419 20.3591 13.3977C20.3524 13.4209 20.3267 13.4449 20.2819 13.4697C20.2371 13.4945 20.2131 13.5128 20.2098 13.5244C20.2031 13.5476 20.2089 13.5932 20.227 13.6611L20.2319 13.7755C20.2219 13.8103 20.1945 13.8402 20.1498 13.865C20.105 13.8898 20.0643 13.9221 20.0278 13.9618L19.9156 14.2875C19.8956 14.3571 19.8765 14.4019 19.8583 14.4217C19.83 14.4764 19.8018 14.5311 19.7736 14.5858C19.7569 14.6438 19.7403 14.7018 19.7237 14.7598C19.7104 14.8062 19.6971 14.8526 19.6838 14.899C19.6821 14.9487 19.6803 14.9985 19.6786 15.0482C19.667 15.0449 19.6538 15.0474 19.6388 15.0556C19.6289 15.0904 19.6172 15.131 19.6039 15.1774L19.5989 15.1948C19.5989 15.1948 19.5973 15.2006 19.5939 15.2122C19.569 15.2553 19.5483 15.3059 19.5316 15.3639L19.6112 15.349C19.6411 15.3325 19.6667 15.3524 19.6882 15.4088L19.6533 15.5306C19.6533 15.5306 19.621 15.5339 19.5563 15.5405C19.5331 15.5338 19.5124 15.4965 19.4943 15.4285C19.4909 15.4401 19.471 15.4658 19.4345 15.5055C19.3582 15.5088 19.3052 15.5187 19.2753 15.5352C19.3151 15.5717 19.3117 15.6273 19.2652 15.7018C19.2403 15.7449 19.2013 15.7714 19.1483 15.7813C19.2195 15.8394 19.2385 15.9264 19.2052 16.0424L19.1405 16.1369L19.021 16.2909C19.021 16.2909 19.006 16.2992 18.9762 16.3158C18.9298 16.3024 18.8676 16.3223 18.7896 16.3753C18.8062 16.4051 18.8551 16.4317 18.9363 16.455L18.9186 16.7136C18.9103 16.6986 18.8597 16.7657 18.7667 16.9148C18.7485 16.9347 18.7286 16.9604 18.707 16.9919C18.7003 17.0151 18.6903 17.0499 18.677 17.0963L18.6595 17.2231C18.6446 17.2314 18.6271 17.2703 18.6072 17.3399C18.5905 17.3979 18.5615 17.4775 18.5199 17.5786C18.5133 17.6018 18.5025 17.6175 18.4875 17.6258C18.4776 17.6606 18.4137 17.7301 18.2959 17.8345C18.3041 17.8494 18.3033 17.8743 18.2933 17.9091C18.2684 17.9522 18.2112 17.9985 18.1216 18.0482C18.1067 18.0564 18.0934 18.0589 18.0818 18.0556C18.1332 18.0954 18.182 18.1659 18.2283 18.2671C18.2217 18.2903 18.1885 18.3185 18.1288 18.3516C18.0475 18.4161 18.0068 18.4484 18.0068 18.4484C18.0316 18.4932 18.0449 18.5347 18.0465 18.5728C18.0265 18.6424 17.9469 18.7012 17.8076 18.7491L17.7875 18.9505C17.7626 18.9936 17.7186 19.0814 17.6555 19.214C17.6521 19.3135 17.6138 19.4469 17.5407 19.6142C17.5374 19.6258 17.515 19.6382 17.4735 19.6515C17.4171 19.673 17.3856 19.6953 17.379 19.7185C17.4237 19.7816 17.4509 19.8835 17.4607 20.0245C17.401 20.0576 17.3512 20.0998 17.3114 20.1511L17.2591 20.268C17.2442 20.2762 17.2168 20.3061 17.1769 20.3574L17.0721 20.7229C17.0224 20.7212 16.9752 20.7327 16.9304 20.7575C16.8457 20.8337 16.7968 20.895 16.7835 20.9414C16.815 20.963 16.8365 21.0194 16.848 21.1106L16.7707 21.3144C16.7358 21.3923 16.7042 21.4586 16.676 21.5133C16.6594 21.5713 16.6477 21.6119 16.6411 21.6351L16.5365 21.7369L16.5116 21.8239C16.4983 21.8703 16.48 21.9341 16.4567 22.0154C16.4334 22.0966 16.3977 22.1993 16.3495 22.3236C16.3196 22.3402 16.279 22.3285 16.2277 22.2887C16.1978 22.3052 16.1829 22.3135 16.1829 22.3135L16.1752 22.5373C16.1767 22.6633 16.1725 22.7437 16.1625 22.7785L16.1526 22.8133C16.1293 22.8945 16.0828 22.9251 16.0132 22.9052L15.971 22.8554C15.9511 22.8371 15.9296 22.8247 15.9064 22.818C15.8566 22.8163 15.8028 22.8072 15.7448 22.7905C15.6984 22.7772 15.6345 22.7589 15.5533 22.7356L15.5061 22.7033L15.4539 22.6883L15.2251 22.698C15.2019 22.6914 15.1398 22.6233 15.0388 22.4939C14.9791 22.527 14.9037 22.5493 14.8125 22.5609L14.626 22.4886C14.5714 22.4603 14.5266 22.4412 14.4918 22.4312C14.4686 22.4246 14.4512 22.4196 14.4396 22.4163L14.2854 22.4286ZM19.3871 13.0436C19.3904 13.032 19.417 13.0271 19.4667 13.0288L19.3549 12.9591L19.2927 12.9789L19.3871 13.0436ZM18.4148 13.085L18.4098 13.1024L18.4148 13.085ZM19.2866 14.1825C19.3562 14.2024 19.3993 14.1834 19.4159 14.1254L19.4061 14.0284C19.4194 13.982 19.4219 13.9513 19.4136 13.9364C19.3805 13.8767 19.3366 13.8327 19.282 13.8045C19.2737 13.7895 19.2654 13.7746 19.2571 13.7597C19.2638 13.7365 19.2572 13.7158 19.2373 13.6975C19.229 13.6826 19.2133 13.6718 19.1901 13.6651C19.0906 13.6617 19.0292 13.7006 19.006 13.7818C19.0125 13.8465 19.0315 13.8896 19.063 13.9112C19.1376 13.9577 19.1749 13.9809 19.1749 13.9809L19.1623 14.0903C19.1523 14.1251 19.1938 14.1558 19.2866 14.1825ZM15.856 13.0104C15.8627 12.9872 15.8577 12.9607 15.8412 12.9309C15.8362 12.9043 15.8114 12.9035 15.7666 12.9283C15.7798 12.9698 15.8096 12.9971 15.856 13.0104ZM15.4656 12.9927L15.396 12.9727L15.4407 13.0797L15.4656 12.9927ZM18.5556 14.1047C18.587 14.1263 18.6285 14.113 18.6799 14.065C18.6717 14.0501 18.6501 14.0376 18.6153 14.0276C18.5921 14.021 18.5722 14.0467 18.5556 14.1047ZM19.6245 14.4489L19.6743 14.4066L19.6395 14.3967L19.6071 14.4439L19.6245 14.4489ZM17.9762 14.0892L17.9712 14.1066L17.9762 14.0892ZM19.5717 15.0929L19.5915 15.155C19.6048 15.1086 19.6206 15.0755 19.6388 15.0556C19.6123 15.0606 19.5899 15.073 19.5717 15.0929ZM18.525 14.8681C18.5565 14.8896 18.5979 14.8764 18.6494 14.8284C18.6411 14.8135 18.6195 14.801 18.5847 14.791C18.5615 14.7844 18.5416 14.8101 18.525 14.8681ZM14.992 16.8118L15.104 16.7497C15.0775 16.6668 15.0469 16.6204 15.0121 16.6104C14.9657 16.5971 14.9358 16.6136 14.9225 16.66C14.9258 16.7363 14.9489 16.7869 14.992 16.8118ZM14.7683 16.6723C14.7799 16.6756 14.8007 16.669 14.8305 16.6525L14.7683 16.6723ZM17.0082 17.3334L17.0182 17.2986L16.9486 17.2787L16.9386 17.3135L17.0082 17.3334ZM16.7617 17.7335L16.8114 17.6913C16.7833 17.6581 16.7485 17.6482 16.707 17.6614C16.7319 17.7062 16.7501 17.7302 16.7617 17.7335ZM17.7434 18.3164C17.7616 18.2965 17.7625 18.2716 17.7459 18.2418C17.7376 18.2268 17.707 18.2243 17.6539 18.2342C17.6671 18.2757 17.697 18.3031 17.7434 18.3164ZM15.0509 17.6573L15.1355 17.6251C15.1388 17.6135 15.1156 17.6068 15.0659 17.6051C15.0509 17.6134 15.0459 17.6308 15.0509 17.6573ZM15.2248 17.839C15.2563 17.8606 15.2977 17.8474 15.3492 17.7993C15.3326 17.7695 15.3094 17.7628 15.2796 17.7794C15.2497 17.7959 15.2314 17.8158 15.2248 17.839ZM16.6257 19.5214C16.6357 19.4866 16.6324 19.4542 16.6158 19.4244C16.5993 19.3945 16.5727 19.3995 16.5362 19.4392C16.5263 19.474 16.5561 19.5014 16.6257 19.5214ZM15.4472 19.2964C15.5218 19.2551 15.5625 19.2228 15.5691 19.1996C15.5526 19.1697 15.5443 19.1548 15.5443 19.1548L15.4025 19.1895L15.3826 19.2591L15.4472 19.2964ZM15.31 19.7091C15.3664 19.6876 15.3996 19.6594 15.4096 19.6246L15.3276 19.5823C15.2679 19.6154 15.233 19.6493 15.223 19.6841L15.31 19.7091ZM16.4852 20.7994C16.5167 20.821 16.5581 20.8077 16.6096 20.7597C16.593 20.7299 16.5698 20.7232 16.54 20.7398C16.5101 20.7563 16.4919 20.7762 16.4852 20.7994ZM15.1873 20.5967C15.2023 20.5885 15.2131 20.5727 15.2197 20.5495C15.2297 20.5147 15.2057 20.489 15.1477 20.4724C15.1294 20.4922 15.1426 20.5337 15.1873 20.5967ZM15.8335 20.9703C15.8567 20.977 15.8949 20.9754 15.9479 20.9655L15.9729 20.8785C15.9331 20.842 15.9016 20.8204 15.8784 20.8137C15.8552 20.8071 15.8171 20.8087 15.764 20.8186L15.7391 20.9056C15.7789 20.9421 15.8103 20.9637 15.8335 20.9703ZM15.5669 21.5719C15.5735 21.5487 15.5686 21.5221 15.552 21.4923C15.5471 21.4658 15.5222 21.4649 15.4774 21.4897C15.4675 21.5245 15.4973 21.5519 15.5669 21.5719ZM14.8178 22.1481C14.8709 22.1382 14.9049 22.1291 14.9198 22.1208C14.9265 22.0976 14.9331 22.0744 14.9398 22.0512C14.958 22.0313 14.9796 21.9999 15.0045 21.9568L15.0743 21.8449C15.0926 21.7372 15.0496 21.6684 14.9451 21.6384C14.8987 21.6251 14.8606 21.6267 14.8307 21.6433L14.8058 21.7303L14.8778 21.8075C14.8778 21.8075 14.8563 21.8389 14.8131 21.9019L14.7558 22.0361C14.7623 22.1008 14.783 22.1381 14.8178 22.1481ZM19.6324 24.0936L19.5355 23.9717L19.4609 23.9691C19.4344 23.9741 19.4037 23.9715 19.3689 23.9616L19.2496 23.852C19.1817 23.7823 19.1362 23.7442 19.113 23.7375C19.0782 23.7275 19.0483 23.7441 19.0234 23.7872C18.9637 23.8203 18.9181 23.826 18.8866 23.8044L18.822 23.7671C18.7905 23.7455 18.7574 23.7297 18.7226 23.7197L18.6256 23.7296C18.5759 23.7279 18.5411 23.7179 18.5212 23.6997C18.5212 23.6997 18.4897 23.6781 18.4268 23.6349L18.3373 23.5528C18.3373 23.5528 18.2635 23.5693 18.116 23.6023L18.0289 23.5773L18.0091 23.5152L18.1362 23.2691C18.1644 23.2144 18.1984 23.1614 18.2383 23.11C18.2814 23.0471 18.3205 22.9767 18.3553 22.8988L18.3281 22.7968C18.3265 22.7587 18.3174 22.7247 18.3008 22.6948C18.2959 22.6683 18.2967 22.6434 18.3034 22.6202L18.4653 22.3841C18.4936 22.2416 18.5534 22.0328 18.6449 21.7577C18.7261 21.7809 18.8123 21.7868 18.9035 21.7753C18.9101 21.7521 18.8795 21.7057 18.8116 21.636L18.6924 21.5264L18.8267 21.452L18.8716 21.2953C18.8468 21.2506 18.8336 21.2091 18.832 21.171L18.8844 20.9224C18.9359 20.7865 19.009 20.663 19.1036 20.552L19.1732 20.572C19.1964 20.5787 19.2254 20.543 19.2603 20.4652C19.2803 20.3956 19.2861 20.3533 19.2779 20.3384C19.2629 20.3466 19.2323 20.3441 19.1859 20.3308L19.1562 20.1716C19.1679 20.0871 19.1746 20.02 19.1763 19.9702C19.1929 19.9122 19.2137 19.8617 19.2386 19.8186C19.2619 19.7374 19.3332 19.6637 19.4526 19.5975C19.4742 19.566 19.49 19.5329 19.5 19.4981C19.51 19.4633 19.5183 19.4343 19.5249 19.4111C19.5515 19.3182 19.5491 19.261 19.5176 19.2395L19.8118 18.4763C19.7688 18.3636 19.7556 18.2782 19.7723 18.2202L19.9344 17.7205L20.2284 17.0891C20.2317 17.0775 20.2127 17.0344 20.1713 16.9598C20.2377 16.9035 20.2775 16.8521 20.2908 16.8057L20.4304 16.4503C20.4255 16.4237 20.4263 16.3989 20.433 16.3757C20.443 16.3409 20.4488 16.2986 20.4505 16.2489L20.5352 16.0848C20.5501 16.0765 20.5709 16.0699 20.5974 16.065C20.6239 16.06 20.6505 16.0551 20.677 16.0501C20.7102 16.022 20.6978 15.9996 20.6398 15.983L20.5527 15.958C20.5677 15.9497 20.5926 15.9067 20.6275 15.8288C20.6292 15.779 20.6367 15.731 20.65 15.6846C20.6666 15.6266 20.6849 15.5627 20.7049 15.4931C20.7331 15.4385 20.7522 15.3937 20.7622 15.3589C20.7871 15.3158 20.8029 15.2827 20.8095 15.2595C20.8328 15.1783 20.8453 15.1128 20.847 15.0631C20.8603 15.0167 20.8745 14.9893 20.8894 14.9811L20.9839 14.914L20.9219 14.802C20.9136 14.7871 20.9211 14.739 20.9444 14.6578L21.1362 14.3173C21.1312 14.2908 21.1404 14.2369 21.1637 14.1557L21.2458 14.0663C21.2409 14.0398 21.2302 14.0116 21.2136 13.9817C21.212 13.9436 21.212 13.8996 21.2137 13.8499C21.2171 13.8383 21.2336 13.8242 21.2635 13.8077C21.2934 13.7911 21.3116 13.7713 21.3183 13.7481L21.3459 13.4547C21.3608 13.4464 21.3807 13.4207 21.4057 13.3776C21.4007 13.3511 21.3933 13.3113 21.3834 13.2582L21.4233 13.119L21.5799 13.1639L21.6942 13.2909L22.0273 13.4429C22.0239 13.4545 21.9916 13.5017 21.9302 13.5845C21.9467 13.6144 21.9757 13.6227 22.0172 13.6095C22.0354 13.5896 22.0446 13.5357 22.0447 13.4479C22.0745 13.4313 22.1417 13.438 22.2461 13.4679C22.3273 13.4912 22.3878 13.5211 22.4275 13.5576L22.5967 13.4931C22.5817 13.5014 22.6024 13.5387 22.6587 13.6051C22.7217 13.6483 22.788 13.6798 22.8576 13.6998L22.9198 13.68C22.9347 13.6717 22.9538 13.6709 22.977 13.6775L23.1112 13.7348C23.1344 13.7415 23.1559 13.754 23.1758 13.7722C23.1957 13.7905 23.2114 13.8013 23.223 13.8046L23.3026 13.7897C23.3557 13.7798 23.3822 13.7749 23.3822 13.7749C23.4982 13.8082 23.5346 13.8563 23.4915 13.9192L23.3918 14.1355C23.3619 14.152 23.3271 14.186 23.2873 14.2373C23.2723 14.2456 23.2582 14.2729 23.2449 14.3193C23.2216 14.4006 23.2025 14.4453 23.1876 14.4536C23.108 14.4684 23.0665 14.4816 23.0632 14.4932C23.0467 14.4634 23.0285 14.4393 23.0086 14.4211L22.9588 14.4633C22.9439 14.4716 22.9522 14.4865 22.9836 14.5081C22.9952 14.5114 23.0085 14.5089 23.0234 14.5007C23.0268 14.4891 23.0326 14.4907 23.0408 14.5057L23.1725 14.6376L22.968 15.2193C22.8735 15.2424 22.788 15.3434 22.7116 15.5224C22.7447 15.5821 22.7787 15.617 22.8135 15.6269C22.8251 15.6303 22.8383 15.6278 22.8533 15.6195C22.8566 15.6079 22.8641 15.6038 22.8757 15.6071C22.8989 15.6138 22.9311 15.6544 22.9725 15.729C22.9178 15.7887 22.8656 15.7737 22.8159 15.6841L22.7238 15.8084C22.6707 15.8183 22.6276 15.8373 22.5944 15.8655C22.5645 15.9699 22.5909 16.0528 22.6738 16.1142C22.6539 16.0959 22.6174 16.1357 22.5642 16.2335C22.6156 16.2733 22.6329 16.3222 22.6163 16.3802C22.6063 16.415 22.564 16.4531 22.4894 16.4945L22.5042 16.5741L22.4669 16.6387C22.4702 16.6271 22.4445 16.6072 22.3898 16.5789C22.3898 16.5789 22.3525 16.5996 22.2779 16.641C22.2513 16.646 22.219 16.6492 22.1809 16.6509C22.1427 16.6525 22.0913 16.6566 22.0267 16.6631C22.0399 16.7046 22.0639 16.7303 22.0987 16.7403L22.1683 16.7603C22.1617 16.7835 22.1666 16.81 22.1832 16.8399C22.1649 16.8597 22.1458 16.9045 22.1259 16.9741C22.1772 17.0139 22.2219 17.077 22.26 17.1632C22.2616 17.2013 22.2491 17.2668 22.2225 17.3596C22.1809 17.4607 22.1452 17.5195 22.1154 17.5361C22.0971 17.5559 22.0847 17.5775 22.078 17.6007L22.0578 17.9339C22.0561 17.9836 22.0453 18.0433 22.0253 18.1129C22.012 18.1593 21.9946 18.1982 21.973 18.2297C21.9663 18.2529 21.9539 18.2745 21.9356 18.2943C21.9471 18.3855 21.9479 18.4485 21.9379 18.4833L21.7438 18.6348C21.7256 18.6547 21.7081 18.6936 21.6915 18.7517C21.7031 18.755 21.7146 18.8022 21.7262 18.8934C21.7361 18.9465 21.736 18.9904 21.726 19.0252C21.7094 19.0832 21.6613 19.1197 21.5817 19.1345C21.575 19.1577 21.5725 19.1884 21.5741 19.2265C21.5758 19.2646 21.5741 19.3144 21.569 19.3757L21.5589 19.5423C21.544 19.5506 21.5274 19.5646 21.5092 19.5845C21.5025 19.6077 21.4842 19.6276 21.4544 19.6442L21.4393 19.8282C21.4244 19.8364 21.4003 19.8546 21.3671 19.8828C21.3373 19.8993 21.3058 19.9217 21.2726 19.9498C21.251 19.9813 21.2269 20.0435 21.2003 20.1363C21.187 20.1827 21.1894 20.2399 21.2076 20.3079L21.1702 20.3725C21.1901 20.3907 21.1884 20.4405 21.1651 20.5217L21.1202 20.6783C21.1317 20.7695 21.1416 20.8226 21.1499 20.8375L20.9434 20.9666C20.9632 20.9848 20.9831 21.0031 21.003 21.0214C21.0229 21.0396 21.0469 21.0653 21.075 21.0985C21.0252 21.1847 20.9729 21.2576 20.9182 21.3172C20.8335 21.3934 20.7879 21.4431 20.7812 21.4663L20.7409 22.0009C20.726 22.0091 20.7111 22.0174 20.6962 22.0257C20.6812 22.034 20.6646 22.048 20.6464 22.0679L20.5342 22.3936C20.5192 22.4018 20.4853 22.4109 20.4322 22.4208C20.4156 22.4788 20.4387 22.5294 20.5017 22.5726C20.437 22.5791 20.3997 22.5998 20.3897 22.6346L20.3797 22.6694C20.3631 22.7275 20.373 22.7805 20.4094 22.8286C20.4508 22.9033 20.4665 22.958 20.4565 22.9928L20.3346 23.0897L20.2797 23.2811L20.2449 23.2711C20.1753 23.2511 20.0874 23.2511 19.9813 23.2708L20.0309 23.3604L20.0657 23.3704C20.1934 23.407 20.2264 23.5546 20.1648 23.8131L20.0604 23.7832C20.0438 23.7533 19.9874 23.7748 19.8912 23.8477C19.8912 23.8477 19.9053 23.8643 19.9334 23.8975L20.0478 23.8926L20.0402 24.1164C19.876 24.1195 19.7998 24.1228 19.8114 24.1261L19.8288 24.1311C19.8288 24.1311 19.823 24.1294 19.8114 24.1261L19.7294 24.0838C19.6946 24.0738 19.6622 24.0771 19.6324 24.0936ZM22.3023 14.5199C22.3337 14.5415 22.3735 14.534 22.4216 14.4976C22.4134 14.4827 22.3976 14.4719 22.3744 14.4652C22.3396 14.4553 22.3156 14.4735 22.3023 14.5199ZM22.3537 15.3256L22.4109 15.3232L22.4981 15.2163C22.5511 15.2064 22.6 15.1891 22.6448 15.1643L22.6004 14.7937C22.5507 14.792 22.5109 14.7994 22.481 14.816L22.4661 14.8682C22.4527 14.9146 22.4278 14.9577 22.3913 14.9974C22.3349 15.0189 22.2678 15.0561 22.1898 15.1091C22.2295 15.2335 22.2841 15.3057 22.3537 15.3256ZM21.9331 15.6758C21.9547 15.6444 21.9572 15.6137 21.9407 15.5838C21.9357 15.5573 21.9109 15.5565 21.8661 15.5813C21.8594 15.6045 21.8818 15.636 21.9331 15.6758ZM21.7439 15.9417L21.6891 16.0014C21.7041 15.9931 21.7173 15.9906 21.7289 15.9939L21.7463 15.9989C21.753 15.9757 21.7522 15.9567 21.7439 15.9417ZM20.5527 15.958C20.5494 15.9696 20.5494 15.9696 20.5527 15.958V15.958ZM20.8383 16.3412C20.8582 16.3595 20.8831 16.3603 20.9129 16.3438C20.9428 16.3272 20.9437 16.3024 20.9155 16.2692C20.8807 16.2592 20.855 16.2832 20.8383 16.3412ZM21.3195 17.6845C21.3377 17.6646 21.3386 17.6398 21.322 17.6099C21.3171 17.5834 21.2922 17.5825 21.2474 17.6073C21.2375 17.6422 21.2615 17.6679 21.3195 17.6845ZM20.514 17.4724C20.5289 17.4641 20.543 17.4368 20.5564 17.3903L20.4867 17.3704C20.4751 17.3671 20.4776 17.3803 20.4942 17.4102C20.5107 17.44 20.5173 17.4608 20.514 17.4724ZM20.3739 18.355C20.3888 18.3467 20.3996 18.331 20.4063 18.3078C20.4163 18.273 20.3964 18.2547 20.3466 18.253C20.3168 18.2696 20.3259 18.3036 20.3739 18.355ZM20.5195 19.4891L20.5395 19.4195C20.5345 19.3929 20.5171 19.388 20.4873 19.4045L20.5195 19.4891ZM20.357 20.3841C20.3869 20.3676 20.4035 20.3535 20.4068 20.3419C20.4168 20.3071 20.3928 20.2814 20.3348 20.2648C20.3132 20.2962 20.3206 20.336 20.357 20.3841ZM19.7055 20.4233L19.8523 20.3712C19.8457 20.3066 19.8143 20.2411 19.758 20.1747C19.6801 20.1398 19.6345 20.1456 19.6212 20.192C19.6012 20.2616 19.6293 20.3387 19.7055 20.4233ZM21.1549 20.8201C21.1515 20.8317 21.1499 20.8375 21.1499 20.8375L21.1549 20.8201ZM18.7813 22.1358C18.8128 22.1573 18.8542 22.1441 18.9057 22.0961C18.8974 22.0812 18.8817 22.0704 18.8585 22.0637C18.8237 22.0537 18.7979 22.0778 18.7813 22.1358ZM19.5808 23.4197C19.5908 23.3849 19.5916 23.36 19.5834 23.3451C19.5751 23.3301 19.5444 23.3276 19.4913 23.3375C19.4814 23.3723 19.5112 23.3997 19.5808 23.4197ZM18.4346 23.2793C18.4412 23.2561 18.4363 23.2296 18.4197 23.1997C18.4032 23.1699 18.38 23.1632 18.3501 23.1798C18.3435 23.203 18.3716 23.2362 18.4346 23.2793ZM23.1005 24.9751L23.0706 24.9477L22.7226 24.8479C22.711 24.8446 22.6878 24.8379 22.653 24.8279C22.6298 24.8213 22.6024 24.8072 22.571 24.7856C22.5428 24.7524 22.4956 24.72 22.4293 24.6885L22.0091 24.6433C21.9379 24.5852 21.8434 24.5205 21.7258 24.4491L21.3578 24.4189C21.2717 24.3691 21.2145 24.3276 21.1863 24.2944L21.1839 24.2372L21.9494 22.0272C22.1104 21.86 22.1975 21.7531 22.2108 21.7067C22.2175 21.6835 22.2242 21.6603 22.2308 21.6371C22.2375 21.6139 22.24 21.5832 22.2384 21.5451C22.2384 21.4572 22.2493 21.3976 22.2709 21.3661C22.2875 21.3081 22.3248 21.2435 22.3829 21.1722L22.4751 21.048L22.4754 20.6526L22.5726 20.5109C22.5908 20.4911 22.6124 20.4596 22.6373 20.4165C22.6622 20.3734 22.6904 20.3187 22.722 20.2525L22.9211 20.0836L22.782 19.9118L22.8567 19.7826L22.8617 19.7652C22.875 19.7188 22.8651 19.6657 22.832 19.606L22.8694 19.5414C22.8959 19.5365 22.9283 19.5332 22.9664 19.5316C23.0078 19.5183 23.0568 19.501 23.1132 19.4795L23.153 19.4721C23.0553 19.331 23.0114 19.2431 23.0214 19.2083L23.1259 19.1065C23.1293 19.0949 23.1011 19.0617 23.0415 19.0069L23.1014 18.7981C23.108 18.7749 23.1147 18.7517 23.1213 18.7285C23.1396 18.7086 23.1595 18.6829 23.1811 18.6515C23.2143 18.6233 23.2599 18.6176 23.3179 18.6342L23.3627 18.6094C23.368 18.1966 23.379 17.9612 23.3957 17.9032L23.4604 17.8087L23.5301 17.6969L23.6224 17.4409C23.6373 17.4326 23.6522 17.4243 23.6672 17.416C23.697 17.3995 23.7327 17.3846 23.7741 17.3714L23.6798 17.1748C23.6849 17.1135 23.6998 17.0613 23.7247 17.0182C23.7398 16.8342 23.759 16.7016 23.7823 16.6204C23.7923 16.5856 23.8122 16.5599 23.8421 16.5434C23.8537 16.5467 23.8677 16.5633 23.8843 16.5932C23.9092 16.5501 23.9266 16.5111 23.9366 16.4763C23.9582 16.4448 23.9707 16.4233 23.974 16.4117C23.979 16.3504 23.9832 16.3139 23.9865 16.3023C23.9932 16.2791 23.9874 16.2774 23.9691 16.2973L24.1735 15.8474C24.1917 15.8275 24.21 15.8077 24.2282 15.7878C24.2465 15.7679 24.2647 15.748 24.283 15.7282L24.2707 15.574C24.2476 15.4795 24.2377 15.4264 24.241 15.4148C24.2443 15.4032 24.295 15.3361 24.3929 15.2135L24.5745 15.1714C24.5496 15.1266 24.5024 15.0943 24.4328 15.0743C24.4428 15.0395 24.447 15.003 24.4454 14.9649C24.4553 14.9301 24.4653 14.8953 24.4753 14.8605C24.5318 14.6633 24.5776 14.5257 24.6125 14.4478C24.6507 14.3583 24.6706 14.3327 24.6722 14.3708L24.6624 14.2738C24.6574 14.2473 24.6599 14.2166 24.6699 14.1818C24.7032 14.0658 24.8209 14.0493 25.0231 14.1324L25.1175 14.1971C25.1655 14.2486 25.1953 14.276 25.2069 14.2793L25.2865 14.2644C25.3131 14.2595 25.3437 14.262 25.3785 14.272C25.4034 14.3168 25.4298 14.3558 25.458 14.3889C25.5806 14.4869 25.6651 14.5425 25.7115 14.5558C25.7347 14.5625 25.7662 14.5401 25.806 14.4887C25.8558 14.4905 25.898 14.4963 25.9328 14.5063C25.971 14.5047 26.0116 14.5163 26.0547 14.5412C26.0779 14.5479 26.1151 14.615 26.1664 14.7427C26.2027 14.8787 26.2267 14.9484 26.2383 14.9517C26.2383 14.9517 26.3154 14.9236 26.4696 14.8674C26.6007 14.8045 26.6703 14.7805 26.6786 14.7954L26.7954 14.8478C26.807 14.8511 26.8352 14.8404 26.88 14.8155C26.933 14.8056 26.9654 14.8023 26.977 14.8057C27.0234 14.819 27.0424 14.8621 27.034 14.935C27.0257 15.008 27.072 15.0652 27.1731 15.1068L27.2253 15.1217C27.2618 15.082 27.2834 15.0505 27.2901 15.0273L27.3597 15.0472L27.8344 15.2964C27.8924 15.313 27.9206 15.3462 27.9189 15.3959L27.9361 15.5327C28.1252 15.4865 28.2081 15.46 28.1849 15.4534C28.213 15.4865 28.2594 15.5438 28.324 15.6251L28.5079 15.772C28.5443 15.8201 28.5558 15.8673 28.5425 15.9137C28.5326 15.9486 28.5168 15.9817 28.4952 16.0132L28.4354 16.0902C28.4155 16.1598 28.5 16.2154 28.6889 16.2571L28.9152 16.3219C28.9118 16.3335 28.9052 16.3567 28.8952 16.3915C28.9001 16.4181 28.9034 16.4504 28.905 16.4885C28.9249 16.5068 28.9373 16.5292 28.9423 16.5557C28.9588 16.5856 28.9754 16.6154 28.9919 16.6453C29.0564 16.8144 29.0837 16.9164 29.0737 16.9512C29.0637 16.986 29.0438 17.0117 29.0139 17.0282L29.0214 17.068C29.0263 17.0946 29.0255 17.1194 29.0188 17.1426L28.8471 17.2817C28.8205 17.3745 28.8933 17.4708 29.0657 17.5704L29.0383 17.6002C29.0415 17.6765 29.0315 17.7552 29.0082 17.8364L29.0404 17.921L29.0055 18.0428L29.0204 18.1224L28.8682 18.5873C28.8085 18.6204 28.7513 18.6667 28.6965 18.7264C28.6932 18.738 28.6948 18.7761 28.7014 18.8407C28.7361 18.9386 28.7236 19.048 28.6638 19.169L28.4645 19.4697C28.4579 19.4929 28.4479 19.5277 28.4346 19.5741C28.4213 19.6205 28.4005 19.671 28.3723 19.7257C28.3225 19.8119 28.2436 19.9336 28.1357 20.091L28.0014 20.1655C27.9913 20.2882 27.9639 20.3619 27.9191 20.3867C27.871 20.4232 27.8453 20.4472 27.8419 20.4588C27.8104 20.5251 27.7962 20.5963 27.7995 20.6726L27.5481 20.8265C27.5415 20.8497 27.529 20.8713 27.5108 20.8911C27.4876 20.8845 27.4378 20.8828 27.3616 20.886C27.3317 20.9026 27.2869 20.9713 27.2271 21.0923C27.2022 21.1354 27.1442 21.1627 27.053 21.1742C27.0032 21.1725 26.9634 21.1799 26.9336 21.1965C26.9187 21.2047 26.9037 21.213 26.8888 21.2213C26.8705 21.2412 26.8174 21.295 26.7295 21.3828C26.7146 21.391 26.5189 21.4165 26.1426 21.4593L25.9113 21.4118L25.5906 21.414C25.5707 21.3957 25.5293 21.365 25.4663 21.3219L25.3569 21.3093C25.3188 21.311 25.2881 21.3084 25.2649 21.3018L25.0586 21.1673L24.8126 21.0403L24.7082 21.0103C24.6153 20.9837 24.5092 21.0035 24.3898 21.0697L24.3024 21.4401C24.2842 21.46 24.2377 21.4906 24.1631 21.532C24.163 21.6199 24.153 21.6986 24.133 21.7682C24.1164 21.8262 24.1014 21.8784 24.0881 21.9248C24.0648 22.006 24.044 22.0566 24.0258 22.0765L23.9808 22.3649C23.9177 22.4096 23.8829 22.4435 23.8762 22.4667L23.8087 22.8994C23.7257 22.9258 23.671 22.9854 23.6444 23.0782C23.6178 23.171 23.6144 23.2266 23.6343 23.2448L23.6641 23.2722C23.4097 24.0279 23.2161 24.506 23.0833 24.7065C23.0932 24.7596 23.1089 24.8143 23.1304 24.8707L23.1005 24.9751ZM25.0821 14.8461C25.1268 14.8213 25.1451 14.8014 25.1368 14.7865L25.0374 14.7392L25.005 14.7864L25.0821 14.8461ZM24.8805 14.9579L24.9253 14.933C24.942 14.875 24.9445 14.8004 24.933 14.7092C24.8733 14.7423 24.8368 14.7821 24.8235 14.8285L24.8109 14.9379L24.8805 14.9579ZM26.4791 15.3597C26.5106 15.3813 26.5504 15.3739 26.5985 15.3375C26.5819 15.3076 26.5546 15.2935 26.5165 15.2951C26.5015 15.3034 26.4891 15.3249 26.4791 15.3597ZM27.6843 16.2138C27.7026 16.1939 27.7034 16.1691 27.6869 16.1392C27.6703 16.1094 27.6471 16.1027 27.6173 16.1193C27.604 16.1657 27.6263 16.1972 27.6843 16.2138ZM26.0332 16.1924L26.0606 16.1625C26.0589 16.1244 26.0407 16.1004 26.0059 16.0904C25.9694 16.1301 25.9437 16.1541 25.9288 16.1624L26.0332 16.1924ZM24.8962 19.3693C24.8962 19.3693 24.9344 19.3677 25.0106 19.3644L25.0902 19.3496C25.1101 19.3678 25.1548 19.3869 25.2244 19.4069L25.4034 19.4394C25.4731 19.4593 25.5087 19.4884 25.5103 19.5265C25.5866 19.5233 25.6363 19.525 25.6595 19.5316L25.7887 19.6064C25.8119 19.613 25.8517 19.6056 25.9081 19.5841C25.9529 19.5593 25.9811 19.5485 25.9927 19.5518C25.9927 19.5518 26.0068 19.5684 26.0349 19.6016C26.0581 19.6083 26.1145 19.5868 26.2041 19.5371C26.3003 19.4643 26.3675 19.427 26.4056 19.4254C26.5219 19.1951 26.5759 19.0725 26.5676 19.0575L26.6872 18.7717C26.742 18.7121 26.8017 18.635 26.8665 18.5406L26.914 18.3094C26.9256 18.2248 26.9323 18.1577 26.934 18.108C26.9507 18.05 26.964 18.0036 26.974 17.9688C27.0419 17.9506 27.1091 17.9133 27.1755 17.857C27.1888 17.8106 27.1673 17.7543 27.111 17.6879L27.0017 17.5436C27.0233 17.5121 27.0407 17.4731 27.054 17.4267C27.0873 17.3107 27.0567 17.2203 26.9623 17.1556C26.9739 17.1589 26.9814 17.1548 26.9847 17.1432C26.9947 17.1084 26.9666 17.0313 26.9004 16.9118L26.7936 16.6929C26.7704 16.6863 26.7547 16.6755 26.7464 16.6605C26.7016 16.6854 26.6743 16.7152 26.6643 16.75L26.5077 16.7051C26.4762 16.6835 26.4314 16.6644 26.3734 16.6477C26.095 16.5679 25.9408 16.5802 25.9109 16.6846L25.9406 16.8438C25.9339 16.867 25.88 16.9017 25.7788 16.9481C25.8152 17.084 25.825 17.181 25.8084 17.239C25.7635 17.3517 25.6814 17.3972 25.5621 17.3756C25.5653 17.4518 25.5794 17.5124 25.6042 17.5571C25.6025 17.6069 25.59 17.6723 25.5667 17.7536C25.5467 17.8232 25.5234 17.9044 25.4968 17.9972L25.4471 18.0394L25.3972 18.2134L25.3946 18.288C25.3962 18.3262 25.3904 18.3684 25.3771 18.4148C25.3704 18.438 25.3513 18.4389 25.3199 18.4173C25.3612 18.4919 25.333 18.5466 25.2352 18.5813L25.2574 18.7007C25.1447 18.7437 25.0833 18.7826 25.0733 18.8174L25.0882 18.897L25.1054 19.0338C24.9677 19.1198 24.8906 19.1919 24.874 19.2499L24.8366 19.3145L24.8962 19.3693ZM24.1879 16.3224C24.2227 16.3324 24.2501 16.3026 24.2701 16.2329C24.2469 16.2263 24.2203 16.2312 24.1905 16.2478C24.1756 16.2561 24.1747 16.2809 24.1879 16.3224ZM28.0808 17.7211C28.0957 17.7129 28.1065 17.6971 28.1131 17.6739C28.1231 17.6391 28.1049 17.6151 28.0585 17.6018C28.0369 17.6332 28.0443 17.673 28.0808 17.7211ZM24.5603 16.9942C24.6018 16.9809 24.6291 16.9511 24.6424 16.9047C24.6226 16.8865 24.5977 16.8856 24.5678 16.9022C24.5529 16.9104 24.5504 16.9411 24.5603 16.9942ZM28.3862 18.1665L28.426 18.1591C28.4376 18.1625 28.4509 18.16 28.4658 18.1517L28.446 18.0895C28.431 18.0978 28.4219 18.1077 28.4186 18.1193C28.4153 18.1309 28.4045 18.1467 28.3862 18.1665ZM27.9856 18.4472C28.0005 18.4389 28.0345 18.4298 28.0876 18.4199C28.0793 18.405 28.0503 18.3967 28.0006 18.395L27.9856 18.4472ZM28.3256 19.1661L28.3754 19.1239C28.3671 19.109 28.3713 19.0725 28.3879 19.0145C28.373 18.9349 28.325 18.8835 28.2438 18.8602L28.209 18.8502C28.1626 18.8369 28.1095 18.8468 28.0498 18.8799L28.0398 18.9147C28.1177 18.9496 28.213 19.0334 28.3256 19.1661ZM23.5337 19.1293C23.552 19.1094 23.5528 19.0845 23.5363 19.0547C23.5314 19.0281 23.5065 19.0273 23.4617 19.0521C23.4517 19.0869 23.4757 19.1126 23.5337 19.1293ZM24.8188 19.7049C24.8503 19.7265 24.881 19.729 24.9108 19.7125C24.9257 19.7042 24.9283 19.6735 24.9184 19.6205C24.8952 19.6138 24.862 19.6419 24.8188 19.7049ZM27.0811 20.3536C27.1126 20.3752 27.1524 20.3678 27.2005 20.3313C27.1922 20.3164 27.1765 20.3056 27.1533 20.299C27.1185 20.289 27.0944 20.3072 27.0811 20.3536ZM25.46 20.0959L25.4402 20.0337L25.4178 20.0462L25.4252 20.0859L25.46 20.0959ZM25.6686 20.4194L25.7109 20.3374L25.6861 20.2926L25.6041 20.2502L25.5369 20.2875C25.5452 20.3024 25.546 20.3215 25.5394 20.3447L25.6686 20.4194ZM23.8135 20.4524C23.8367 20.4591 23.8557 20.4583 23.8707 20.45L23.8956 20.363L23.8062 20.2809C23.8443 20.2792 23.8609 20.2212 23.8561 20.1068C23.8743 20.087 23.8934 20.0422 23.9134 19.9726L23.6498 19.9724L23.6249 20.0594C23.6066 20.0792 23.6248 20.1472 23.6794 20.2633C23.7456 20.3828 23.7903 20.4458 23.8135 20.4524ZM25.6357 20.9938L25.7079 20.9392L25.6259 20.8968L25.5711 20.9564C25.5794 20.9714 25.6009 20.9838 25.6357 20.9938ZM25.8669 21.0413L25.9391 20.9866L25.8173 20.9517L25.8669 21.0413ZM24.9271 20.9036C24.9702 20.9285 25.0066 20.9327 25.0365 20.9161L25.0117 20.8714C24.947 20.8779 24.9188 20.8887 24.9271 20.9036ZM23.3197 21.9117L23.2825 21.8445C23.2593 21.8378 23.2402 21.8386 23.2253 21.8469L23.3197 21.9117ZM23.2399 22.1901C23.2581 22.1702 23.259 22.1454 23.2424 22.1155C23.2342 22.1006 23.2035 22.0981 23.1504 22.108C23.1405 22.1428 23.1703 22.1701 23.2399 22.1901ZM23.6525 22.3273C23.6675 22.319 23.6816 22.2916 23.6949 22.2452L23.6253 22.2253C23.6336 22.2402 23.6426 22.2742 23.6525 22.3273ZM22.202 23.1167C22.217 23.1084 22.2319 23.1001 22.2468 23.0918C22.2734 23.0869 22.2941 23.0803 22.309 23.072L22.2196 22.9898L22.1748 23.0147C22.1847 23.0677 22.1938 23.1017 22.202 23.1167ZM21.859 22.9994C21.8755 23.0293 21.8987 23.036 21.9286 23.0194L21.9262 22.9622C21.9146 22.9589 21.8922 22.9713 21.859 22.9994ZM22.5441 24.2882C22.5623 24.2683 22.5632 24.2435 22.5466 24.2136C22.5384 24.1987 22.5077 24.1962 22.4546 24.2061C22.4447 24.2409 22.4745 24.2683 22.5441 24.2882Z" fill="#052930"/>
</svg>
